<svg xmlns="http://www.w3.org/2000/svg" viewBox="0 0 1600 900" preserveAspectRatio="none">
<defs>
  <radialGradient id="fog" cx="50%" cy="0%" r="85%">
    <stop offset="0%" stop-color="#3d2219" stop-opacity=".55"/>
    <stop offset="50%" stop-color="#170f12" stop-opacity=".22"/>
    <stop offset="100%" stop-color="#0b0a0d" stop-opacity="0"/>
  </radialGradient>
</defs>
<rect width="1600" height="900" fill="url(#fog)"/>
<g fill="#f2b567" opacity=".22">
  <circle cx="130" cy="730" r="2"/><circle cx="205" cy="685" r="3"/><circle cx="265" cy="745" r="2"/>
  <circle cx="410" cy="698" r="2"/><circle cx="530" cy="785" r="3"/><circle cx="640" cy="722" r="2"/>
  <circle cx="760" cy="760" r="2"/><circle cx="838" cy="680" r="3"/><circle cx="914" cy="748" r="2"/>
  <circle cx="1030" cy="785" r="2"/><circle cx="1150" cy="720" r="3"/><circle cx="1210" cy="770" r="2"/>
  <circle cx="1330" cy="694" r="2"/><circle cx="1445" cy="752" r="3"/><circle cx="1518" cy="707" r="2"/>
</g>
<g stroke="#f2b567" stroke-width="1" opacity=".14">
  <path d="M120 780 C 160 720, 170 700, 185 620"/>
  <path d="M565 820 C 590 770, 610 720, 620 640"/>
  <path d="M980 820 C 1020 760, 1040 710, 1055 620"/>
  <path d="M1370 820 C 1400 760, 1420 700, 1435 620"/>
</g>
</svg>