<svg xmlns="http://www.w3.org/2000/svg" viewBox="0 0 512 512">
<defs>
  <linearGradient id="g1" x1="0" x2="1">
    <stop offset="0%" stop-color="#f4c86a"/>
    <stop offset="50%" stop-color="#b5742c"/>
    <stop offset="100%" stop-color="#f7e4a2"/>
  </linearGradient>
  <linearGradient id="g2" x1="0" x2="0" y1="0" y2="1">
    <stop offset="0%" stop-color="#3b0f11"/>
    <stop offset="100%" stop-color="#100b0d"/>
  </linearGradient>
</defs>
<rect width="512" height="512" rx="42" fill="none"/>
<path d="M256 30l144 54v126c0 124-93 214-144 252C205 424 112 334 112 210V84l144-54z" fill="url(#g2)" stroke="url(#g1)" stroke-width="14"/>
<path d="M256 92l78 30v76c0 83-54 141-78 163-24-22-78-80-78-163v-76l78-30z" fill="none" stroke="url(#g1)" stroke-width="11" opacity=".9"/>
<path d="M256 145l22 58 61 3-48 38 17 58-52-33-52 33 17-58-48-38 61-3z" fill="url(#g1)"/>
<path d="M256 120v265" stroke="url(#g1)" stroke-width="10" stroke-linecap="round" opacity=".9"/>
<circle cx="256" cy="146" r="12" fill="#fff2c3"/>
</svg>